<svg width="256" height="256" viewBox="0 0 256 256" fill="none" xmlns="http://www.w3.org/2000/svg" role="img" aria-labelledby="title desc">
  <title id="title">bQuick Secret logo</title>
  <desc id="desc">A secure letter b combined with a lightning mark and keyhole.</desc>
  <rect width="256" height="256" rx="44" fill="#13251D"/>
  <path d="M68 45C68 37.8203 73.8203 32 81 32C88.1797 32 94 37.8203 94 45V91.758C104.185 83.2016 117.312 78 131.7 78C164.992 78 192 105.008 192 138.3C192 171.592 164.992 198.6 131.7 198.6C98.4078 198.6 68 171.592 68 138.3V45Z" fill="#F8FBF5"/>
  <path d="M94 138.3C94 157.233 111.2 172.6 131.7 172.6C152.2 172.6 166 157.233 166 138.3C166 119.367 152.2 104 131.7 104C111.2 104 94 119.367 94 138.3Z" fill="#2D6B58"/>
  <path d="M139.367 65.5998C142.119 61.198 148.826 63.9197 147.777 69.0043L140.836 102.65H164.144C168.022 102.65 170.299 107.011 168.078 110.19L121.262 177.208C118.374 181.342 111.987 178.401 113.086 173.479L120.964 138.2H99.4503C95.5799 138.2 93.3016 133.855 95.5062 130.676L139.367 65.5998Z" fill="#C7F36A"/>
  <circle cx="131" cy="139" r="14" fill="#13251D"/>
  <path d="M127 151H135V164C135 166.209 133.209 168 131 168C128.791 168 127 166.209 127 164V151Z" fill="#13251D"/>
</svg>

